<svg width="24" height="24" viewBox="0 0 24 24" fill="none" xmlns="http://www.w3.org/2000/svg">
<g id="4 - Filled / eye-slash">
<path id="eye-slash-Filled" d="M21.0097 10.2412C20.4669 9.34425 19.5842 8.12934 18.3646 7.03934L20.6958 4.70731C21.0867 4.31631 21.0867 3.68425 20.6958 3.29325C20.3049 2.90225 19.6731 2.90225 19.2823 3.29325L3.28754 19.2932C2.89667 19.6842 2.89667 20.3163 3.28754 20.7073C3.48248 20.9023 3.7384 21.0003 3.99431 21.0003C4.25023 21.0003 4.50614 20.9023 4.70108 20.7073L7.23525 18.1724C8.70476 19.0514 10.2972 19.5013 11.9927 19.5013C16.8211 19.5013 19.7102 15.9013 21.0097 13.7613C21.6595 12.6713 21.6595 11.3312 21.0097 10.2412ZM11.9927 16.5013C11.111 16.5013 10.3013 16.2344 9.60849 15.7984L11.081 14.3243C11.3629 14.4353 11.6688 14.5013 11.9917 14.5013C13.3712 14.5013 14.4909 13.3813 14.4909 12.0013C14.4909 11.9513 14.4909 11.9214 14.4809 11.8714C14.3409 11.9514 14.171 12.0013 13.991 12.0013C13.8211 12.0013 13.6691 11.9483 13.5302 11.8743L15.7914 9.61234C16.2293 10.3063 16.4902 11.1223 16.4902 12.0013C16.4912 14.4813 14.4719 16.5013 11.9927 16.5013ZM4.31522 15.6214C3.82538 15.0414 3.37554 14.4113 2.98567 13.7613C2.33589 12.6713 2.33588 11.3312 2.97567 10.2412C4.27524 8.10125 7.17427 4.50126 11.9927 4.50126C12.9224 4.50126 13.8221 4.63117 14.7418 4.91117C14.9117 4.96117 15.0417 5.10128 15.0917 5.27128C15.1317 5.44128 15.0817 5.62125 14.9517 5.74125L13.0623 7.63138C12.7224 7.55138 12.3626 7.50126 11.9927 7.50126C9.5135 7.50126 7.49417 9.52126 7.49417 12.0013C7.49417 12.3713 7.53416 12.7313 7.62413 13.0813L5.05497 15.6512C4.955 15.7512 4.83505 15.8013 4.6951 15.8013C4.6951 15.8013 4.68508 15.8013 4.67509 15.8013C4.53513 15.7913 4.40519 15.7314 4.31522 15.6214Z" fill="#2B3F6C"/>
</g>
</svg>
