<svg width="24" height="24" viewBox="0 0 24 24" fill="none" xmlns="http://www.w3.org/2000/svg">
<g id="4 - Filled / flag">
<path id="flag-Filled" d="M19.448 14.522C19.526 14.677 19.517 14.861 19.426 15.008C19.335 15.1549 19.174 15.245 19.001 15.245H6.5V20.7503C6.5 21.3031 6.052 21.75 5.5 21.75C4.948 21.75 4.5 21.3031 4.5 20.7503V13.7525L4.50101 13.7474V6.74859C4.50101 4.26837 6.52001 2.25 9.00101 2.25H19.001C19.174 2.25 19.335 2.34003 19.426 2.48699C19.517 2.63394 19.526 2.81772 19.448 2.97267L16.895 8.07606C16.685 8.49593 16.685 8.99781 16.895 9.41768L19.448 14.522Z" fill="#2B3F6C"/>
</g>
</svg>
