<svg width="24" height="24" viewBox="0 0 24 24" fill="none" xmlns="http://www.w3.org/2000/svg">
<g id="4 - Filled / user">
<path id="user-Filled" d="M7 7.49951C7 4.74251 9.243 2.49951 12 2.49951C14.757 2.49951 17 4.74251 17 7.49951C17 10.2565 14.757 12.4995 12 12.4995C9.243 12.4995 7 10.2565 7 7.49951ZM16.117 13.5706C15.558 13.4286 14.95 13.5086 14.447 13.7886C12.929 14.6326 11.071 14.6326 9.55298 13.7886C9.05098 13.5096 8.442 13.4306 7.883 13.5706C5.891 14.0736 4.5 15.8816 4.5 17.9666V18.9775C4.5 19.6155 4.66998 20.2394 4.99298 20.7834C5.25598 21.2254 5.74902 21.5005 6.27802 21.5005H17.721C18.25 21.5005 18.743 21.2265 19.006 20.7825C19.329 20.2395 19.499 19.6155 19.499 18.9775V17.9666C19.5 15.8816 18.109 14.0736 16.117 13.5706Z" fill="#2B3F6C"/>
</g>
</svg>
